<svg width="800" height="600" xmlns="http://www.w3.org/2000/svg">
  <defs>
    <linearGradient id="darkBg" x1="0%" y1="0%" x2="100%" y2="100%">
      <stop offset="0%" style="stop-color:#1c1c1c;stop-opacity:1" />
      <stop offset="100%" style="stop-color:#2c2c2c;stop-opacity:1" />
    </linearGradient>
    <radialGradient id="plateGrad" cx="50%" cy="30%" r="70%">
      <stop offset="0%" style="stop-color:#ffffff;stop-opacity:1" />
      <stop offset="80%" style="stop-color:#f8f9fa;stop-opacity:1" />
      <stop offset="100%" style="stop-color:#e9ecef;stop-opacity:1" />
    </radialGradient>
    <linearGradient id="pastryGrad" x1="0%" y1="0%" x2="100%" y2="100%">
      <stop offset="0%" style="stop-color:#d4af37;stop-opacity:1" />
      <stop offset="50%" style="stop-color:#b8860b;stop-opacity:1" />
      <stop offset="100%" style="stop-color:#8b6914;stop-opacity:1" />
    </linearGradient>
    <linearGradient id="beefGrad" x1="0%" y1="0%" x2="100%" y2="100%">
      <stop offset="0%" style="stop-color:#8b4513;stop-opacity:1" />
      <stop offset="50%" style="stop-color:#a0522d;stop-opacity:1" />
      <stop offset="100%" style="stop-color:#654321;stop-opacity:1" />
    </linearGradient>
  </defs>
  
  <!-- Dark Restaurant Background -->
  <rect width="100%" height="100%" fill="url(#darkBg)"/>
  
  <!-- Plate Shadow -->
  <ellipse cx="405" cy="355" rx="200" ry="150" fill="#000000" opacity="0.4"/>
  
  <!-- Main Plate -->
  <ellipse cx="400" cy="350" rx="190" ry="145" fill="url(#plateGrad)"/>
  <ellipse cx="400" cy="350" rx="180" ry="135" fill="none" stroke="#dee2e6" stroke-width="3"/>
  
  <!-- Wellington Base (Puff Pastry) -->
  <ellipse cx="380" cy="330" rx="85" ry="45" fill="url(#pastryGrad)"/>
  
  <!-- Pastry texture lines -->
  <path d="M 310 315 Q 380 310 450 315" stroke="#8b6914" stroke-width="2" fill="none" opacity="0.8"/>
  <path d="M 315 330 Q 380 325 445 330" stroke="#8b6914" stroke-width="2" fill="none" opacity="0.8"/>
  <path d="M 320 345 Q 380 340 440 345" stroke="#8b6914" stroke-width="2" fill="none" opacity="0.8"/>
  
  <!-- Wellington Slice showing beef interior -->
  <ellipse cx="420" cy="320" rx="25" ry="35" fill="url(#beefGrad)"/>
  <ellipse cx="425" cy="315" rx="18" ry="28" fill="#cd853f" opacity="0.9"/>
  <ellipse cx="428" cy="318" rx="12" ry="20" fill="#ff6b6b" opacity="0.7"/>
  
  <!-- Mushroom Duxelles layer -->
  <path d="M 400 305 Q 420 300 440 305 Q 445 315 440 325 Q 420 330 400 325 Q 395 315 400 305" fill="#8b4513" opacity="0.8"/>
  
  <!-- Beef center (perfectly cooked) -->
  <ellipse cx="425" cy="318" rx="8" ry="15" fill="#ff4757"/>
  
  <!-- Red wine reduction sauce -->
  <ellipse cx="350" cy="380" rx="60" ry="15" fill="#722f37" opacity="0.8"/>
  <ellipse cx="340" cy="375" rx="25" ry="8" fill="#8b1538" opacity="0.9"/>
  
  <!-- Roasted vegetables -->
  <!-- Carrots -->
  <ellipse cx="480" cy="340" rx="8" ry="25" fill="#ff8c00" transform="rotate(30)"/>
  <ellipse cx="495" cy="355" rx="8" ry="25" fill="#ff7f00" transform="rotate(45)"/>
  
  <!-- Brussels sprouts -->
  <circle cx="500" cy="380" r="12" fill="#4caf50"/>
  <circle cx="485" cy="390" r="10" fill="#66bb6a"/>
  <!-- Brussels sprout leaves -->
  <ellipse cx="500" cy="375" rx="3" ry="8" fill="#388e3c" transform="rotate(45)"/>
  <ellipse cx="505" cy="380" rx="3" ry="8" fill="#388e3c" transform="rotate(-45)"/>
  
  <!-- Baby potatoes -->
  <ellipse cx="320" cy="370" rx="15" ry="12" fill="#daa520"/>
  <ellipse cx="300" cy="385" rx="12" ry="10" fill="#b8860b"/>
  
  <!-- Fresh thyme sprigs -->
  <g transform="translate(440, 290)">
    <line x1="0" y1="0" x2="20" y2="5" stroke="#2e7d32" stroke-width="2"/>
    <circle cx="3" cy="1" r="1" fill="#4caf50"/>
    <circle cx="6" cy="1.5" r="1" fill="#4caf50"/>
    <circle cx="9" cy="2" r="1" fill="#4caf50"/>
    <circle cx="12" cy="2.5" r="1" fill="#4caf50"/>
    <circle cx="15" cy="3" r="1" fill="#4caf50"/>
    <circle cx="18" cy="3.5" r="1" fill="#4caf50"/>
  </g>
  
  <!-- Watercress garnish -->
  <g transform="translate(460, 310)">
    <path d="M 0 0 Q 5 -8 10 -5 Q 15 -2 20 -8 Q 25 -10 30 -5" stroke="#2e7d32" stroke-width="1" fill="none"/>
    <ellipse cx="5" cy="-6" rx="2" ry="3" fill="#4caf50" transform="rotate(30)"/>
    <ellipse cx="15" cy="-4" rx="2" ry="3" fill="#4caf50" transform="rotate(-30)"/>
    <ellipse cx="25" cy="-8" rx="2" ry="3" fill="#4caf50" transform="rotate(45)"/>
  </g>
  
  <!-- Professional plating dots (sauce dots) -->
  <circle cx="300" cy="320" r="3" fill="#722f37"/>
  <circle cx="310" cy="310" r="2" fill="#722f37"/>
  <circle cx="520" cy="330" r="3" fill="#722f37"/>
  <circle cx="530" cy="320" r="2" fill="#722f37"/>
  
  <!-- Plate rim shine -->
  <ellipse cx="400" cy="290" rx="170" ry="20" fill="none" stroke="#ffffff" stroke-width="2" opacity="0.4"/>
  
  <!-- Steam effect -->
  <g opacity="0.5">
    <path d="M 380 280 Q 385 270 380 260 Q 375 250 380 240" stroke="#ffffff" stroke-width="2" fill="none" opacity="0.6"/>
    <path d="M 390 285 Q 395 275 390 265 Q 385 255 390 245" stroke="#ffffff" stroke-width="2" fill="none" opacity="0.4"/>
    <path d="M 400 280 Q 405 270 400 260 Q 395 250 400 240" stroke="#ffffff" stroke-width="2" fill="none" opacity="0.5"/>
  </g>
  
  <!-- Elegant lighting on wellington -->
  <ellipse cx="370" cy="310" rx="30" ry="15" fill="#ffffff" opacity="0.2"/>
</svg>


