<svg width="400" height="500" xmlns="http://www.w3.org/2000/svg">
  <defs>
    <linearGradient id="chefGrad" x1="0%" y1="0%" x2="100%" y2="100%">
      <stop offset="0%" style="stop-color:#8B4513;stop-opacity:1" />
      <stop offset="50%" style="stop-color:#A0522D;stop-opacity:1" />
      <stop offset="100%" style="stop-color:#654321;stop-opacity:1" />
    </linearGradient>
  </defs>
  
  <!-- Background -->
  <rect width="100%" height="100%" fill="url(#chefGrad)"/>
  
  <!-- Chef Figure -->
  <g transform="translate(200, 150)">
    <!-- Chef Hat -->
    <ellipse cx="0" cy="-50" rx="50" ry="60" fill="#ffffff"/>
    <rect x="-40" y="-20" width="80" height="20" fill="#ffffff"/>
    <ellipse cx="-15" cy="-35" rx="8" ry="12" fill="#f0f0f0"/>
    <ellipse cx="0" cy="-45" rx="6" ry="10" fill="#f0f0f0"/>
    <ellipse cx="15" cy="-30" rx="7" ry="11" fill="#f0f0f0"/>
    
    <!-- Head/Face -->
    <ellipse cx="0" cy="0" rx="35" ry="40" fill="#fdbcb4"/>
    
    <!-- Eyes -->
    <ellipse cx="-12" cy="-10" rx="4" ry="6" fill="#ffffff"/>
    <ellipse cx="12" cy="-10" rx="4" ry="6" fill="#ffffff"/>
    <circle cx="-12" cy="-10" r="2" fill="#2c3e50"/>
    <circle cx="12" cy="-10" r="2" fill="#2c3e50"/>
    
    <!-- Nose -->
    <ellipse cx="0" cy="0" rx="3" ry="5" fill="#f4a792"/>
    
    <!-- Mouth -->
    <path d="M -8 8 Q 0 15 8 8" stroke="#d32f2f" stroke-width="2" fill="none"/>
    
    <!-- Beard -->
    <ellipse cx="0" cy="25" rx="20" ry="15" fill="#654321"/>
    
    <!-- Body/Jacket -->
    <rect x="-45" y="35" width="90" height="120" fill="#ffffff" rx="10"/>
    <!-- Double-breasted buttons -->
    <circle cx="-15" cy="60" r="3" fill="#2c3e50"/>
    <circle cx="-15" cy="80" r="3" fill="#2c3e50"/>
    <circle cx="-15" cy="100" r="3" fill="#2c3e50"/>
    <circle cx="15" cy="60" r="3" fill="#2c3e50"/>
    <circle cx="15" cy="80" r="3" fill="#2c3e50"/>
    <circle cx="15" cy="100" r="3" fill="#2c3e50"/>
    
    <!-- Arms -->
    <ellipse cx="-55" cy="80" rx="15" ry="40" fill="#ffffff"/>
    <ellipse cx="55" cy="80" rx="15" ry="40" fill="#ffffff"/>
    
    <!-- Hands -->
    <circle cx="-55" cy="120" r="12" fill="#fdbcb4"/>
    <circle cx="55" cy="120" r="12" fill="#fdbcb4"/>
    
    <!-- Holding utensil -->
    <rect x="50" y="100" width="3" height="25" fill="#8b4513"/>
    <rect x="48" y="95" width="7" height="8" fill="#c0c0c0"/>
  </g>
  
  <!-- Kitchen Background Elements -->
  <g opacity="0.3">
    <rect x="50" y="100" width="60" height="300" fill="#ffffff" rx="5"/>
    <rect x="290" y="150" width="60" height="250" fill="#ffffff" rx="5"/>
    
    <!-- Shelves -->
    <rect x="60" y="130" width="40" height="3" fill="#8b4513"/>
    <rect x="60" y="170" width="40" height="3" fill="#8b4513"/>
    <rect x="60" y="210" width="40" height="3" fill="#8b4513"/>
    
    <!-- Items on shelves -->
    <circle cx="70" cy="125" r="4" fill="#ff6347"/>
    <circle cx="85" cy="125" r="4" fill="#32cd32"/>
    <rect x="75" y="160" width="8" height="15" fill="#ffa500"/>
    <rect x="70" y="200" width="12" height="8" fill="#deb887"/>
  </g>
  
  <!-- Professional lighting effect -->
  <ellipse cx="200" cy="200" rx="120" ry="200" fill="#ffffff" opacity="0.1"/>
</svg>
