<svg width="2000" height="1200" xmlns="http://www.w3.org/2000/svg">
  <defs>
    <radialGradient id="heroGradient" cx="50%" cy="40%" r="60%">
      <stop offset="0%" style="stop-color:#8B4513;stop-opacity:1" />
      <stop offset="30%" style="stop-color:#A0522D;stop-opacity:0.9" />
      <stop offset="70%" style="stop-color:#654321;stop-opacity:0.8" />
      <stop offset="100%" style="stop-color:#2F1B14;stop-opacity:0.9" />
    </radialGradient>
    <pattern id="foodPattern" x="0" y="0" width="200" height="200" patternUnits="userSpaceOnUse">
      <circle cx="50" cy="50" r="30" fill="#ffffff" opacity="0.1"/>
      <circle cx="150" cy="150" r="25" fill="#ffffff" opacity="0.08"/>
      <rect x="80" y="80" width="40" height="40" fill="#ffffff" opacity="0.06" rx="8"/>
    </pattern>
  </defs>
  
  <rect width="100%" height="100%" fill="url(#heroGradient)"/>
  <rect width="100%" height="100%" fill="url(#foodPattern)"/>
  
  <!-- Food elements -->
  <g opacity="0.15">
    <!-- Plates -->
    <circle cx="300" cy="300" r="80" fill="#ffffff" opacity="0.3"/>
    <circle cx="1700" cy="800" r="60" fill="#ffffff" opacity="0.25"/>
    <circle cx="1200" cy="200" r="70" fill="#ffffff" opacity="0.2"/>
    
    <!-- Food items -->
    <ellipse cx="300" cy="280" rx="40" ry="15" fill="#FF6B35" opacity="0.4"/>
    <ellipse cx="320" cy="300" rx="25" ry="12" fill="#F7931E" opacity="0.4"/>
    <ellipse cx="280" cy="320" rx="35" ry="18" fill="#228B22" opacity="0.4"/>
    
    <ellipse cx="1700" cy="780" rx="30" ry="12" fill="#FF6B35" opacity="0.3"/>
    <ellipse cx="1720" cy="800" rx="20" ry="10" fill="#F7931E" opacity="0.3"/>
    
    <ellipse cx="1200" cy="180" rx="35" ry="14" fill="#FF6B35" opacity="0.3"/>
    <ellipse cx="1220" cy="200" rx="25" ry="11" fill="#228B22" opacity="0.3"/>
  </g>
  
  <!-- Decorative elements -->
  <g opacity="0.1">
    <circle cx="100" cy="100" r="5" fill="#ffffff"/>
    <circle cx="1900" cy="200" r="4" fill="#ffffff"/>
    <circle cx="500" cy="1000" r="6" fill="#ffffff"/>
    <circle cx="1500" cy="1100" r="5" fill="#ffffff"/>
    <circle cx="800" cy="600" r="3" fill="#ffffff"/>
    <circle cx="1300" cy="500" r="4" fill="#ffffff"/>
  </g>
</svg>

