<svg width="1000" height="600" xmlns="http://www.w3.org/2000/svg">
  <defs>
    <linearGradient id="kitchenGrad" x1="0%" y1="0%" x2="100%" y2="100%">
      <stop offset="0%" style="stop-color:#f8f9fa;stop-opacity:1" />
      <stop offset="50%" style="stop-color:#e9ecef;stop-opacity:1" />
      <stop offset="100%" style="stop-color:#dee2e6;stop-opacity:1" />
    </linearGradient>
    <linearGradient id="steelGrad" x1="0%" y1="0%" x2="100%" y2="100%">
      <stop offset="0%" style="stop-color:#e8e9ea;stop-opacity:1" />
      <stop offset="50%" style="stop-color:#d1d3d4;stop-opacity:1" />
      <stop offset="100%" style="stop-color:#b8bcc0;stop-opacity:1" />
    </linearGradient>
  </defs>
  
  <rect width="100%" height="100%" fill="url(#kitchenGrad)"/>
  
  <!-- Counter/Work Surface -->
  <rect x="0" y="400" width="1000" height="200" fill="#4A7C59" opacity="0.8"/>
  <rect x="0" y="380" width="1000" height="20" fill="url(#steelGrad)"/>
  
  <!-- Kitchen Equipment -->
  <!-- Stove -->
  <rect x="100" y="300" width="150" height="100" fill="#2c3e50" rx="10"/>
  <circle cx="130" cy="330" r="15" fill="#34495e"/>
  <circle cx="170" cy="330" r="15" fill="#34495e"/>
  <circle cx="210" cy="330" r="15" fill="#34495e"/>
  <circle cx="220" cy="370" r="8" fill="#e74c3c"/>
  
  <!-- Prep Counter -->
  <rect x="300" y="350" width="200" height="50" fill="url(#steelGrad)" rx="5"/>
  
  <!-- Chef Working -->
  <g transform="translate(350, 200)">
    <!-- Chef Hat -->
    <ellipse cx="0" cy="-30" rx="25" ry="35" fill="#ffffff"/>
    <rect x="-20" y="-15" width="40" height="15" fill="#ffffff"/>
    <!-- Head -->
    <circle cx="0" cy="0" r="20" fill="#fdbcb4"/>
    <!-- Body -->
    <rect x="-15" y="15" width="30" height="60" fill="#ffffff" rx="5"/>
    <!-- Arms -->
    <ellipse cx="-25" cy="35" rx="8" ry="25" fill="#fdbcb4"/>
    <ellipse cx="25" cy="35" rx="8" ry="25" fill="#fdbcb4"/>
    <!-- Knife -->
    <rect x="28" y="25" width="2" height="15" fill="#8b4513"/>
    <rect x="27" y="15" width="4" height="12" fill="#c0c0c0"/>
  </g>
  
  <!-- Utensils Hanging -->
  <g transform="translate(600, 200)">
    <line x1="0" y1="0" x2="100" y2="0" stroke="#8b4513" stroke-width="3"/>
    <!-- Ladle -->
    <circle cx="20" cy="30" r="8" fill="#c0c0c0"/>
    <line x1="20" y1="8" x2="20" y2="22" stroke="#8b4513" stroke-width="2"/>
    <!-- Spatula -->
    <rect x="48" y="25" width="4" height="15" fill="#c0c0c0"/>
    <line x1="50" y1="8" x2="50" y2="25" stroke="#8b4513" stroke-width="2"/>
    <!-- Whisk -->
    <line x1="80" y1="8" x2="80" y2="35" stroke="#8b4513" stroke-width="2"/>
    <line x1="76" y1="35" x2="84" y2="35" stroke="#c0c0c0" stroke-width="1"/>
    <line x1="77" y1="32" x2="83" y2="32" stroke="#c0c0c0" stroke-width="1"/>
  </g>
  
  <!-- Ingredients -->
  <g transform="translate(700, 350)">
    <!-- Cutting Board -->
    <rect x="0" y="0" width="80" height="50" fill="#deb887" rx="5"/>
    <!-- Vegetables -->
    <circle cx="20" cy="20" r="8" fill="#ff6347"/>
    <circle cx="40" cy="25" r="6" fill="#32cd32"/>
    <circle cx="60" cy="18" r="7" fill="#ffa500"/>
  </g>
  
  <!-- Steam Effects -->
  <g opacity="0.6">
    <ellipse cx="400" cy="320" rx="3" ry="15" fill="#ffffff" opacity="0.7"/>
    <ellipse cx="410" cy="315" rx="2" ry="12" fill="#ffffff" opacity="0.5"/>
    <ellipse cx="420" cy="325" rx="3" ry="18" fill="#ffffff" opacity="0.6"/>
  </g>
  
  <!-- Background Details -->
  <rect x="0" y="0" width="1000" height="250" fill="#f1f3f4" opacity="0.3"/>
  <rect x="50" y="50" width="80" height="150" fill="#ffffff" opacity="0.8" rx="5"/>
  <rect x="850" y="80" width="60" height="120" fill="#ffffff" opacity="0.8" rx="5"/>
</svg>
