<svg width="600" height="600" xmlns="http://www.w3.org/2000/svg">
  <defs>
    <linearGradient id="bgGrad" x1="0%" y1="0%" x2="100%" y2="100%">
      <stop offset="0%" style="stop-color:#4A7C59;stop-opacity:1" />
      <stop offset="50%" style="stop-color:#5A8B69;stop-opacity:1" />
      <stop offset="100%" style="stop-color:#3A6C49;stop-opacity:1" />
    </linearGradient>
    <radialGradient id="faceGrad" cx="50%" cy="40%" r="60%">
      <stop offset="0%" style="stop-color:#fdbcb4;stop-opacity:1" />
      <stop offset="80%" style="stop-color:#f4a792;stop-opacity:1" />
      <stop offset="100%" style="stop-color:#e09080;stop-opacity:1" />
    </radialGradient>
    <linearGradient id="hairGrad" x1="0%" y1="0%" x2="100%" y2="100%">
      <stop offset="0%" style="stop-color:#8b4513;stop-opacity:1" />
      <stop offset="50%" style="stop-color:#a0522d;stop-opacity:1" />
      <stop offset="100%" style="stop-color:#654321;stop-opacity:1" />
    </linearGradient>
  </defs>
  
  <!-- Professional background -->
  <rect width="100%" height="100%" fill="url(#bgGrad)"/>
  
  <!-- Soft lighting effect -->
  <ellipse cx="300" cy="300" rx="250" ry="350" fill="#ffffff" opacity="0.1"/>
  
  <!-- Professional woman portrait -->
  <g transform="translate(300, 200)">
    <!-- Neck -->
    <ellipse cx="0" cy="80" rx="20" ry="25" fill="url(#faceGrad)"/>
    
    <!-- Face -->
    <ellipse cx="0" cy="0" rx="65" ry="75" fill="url(#faceGrad)"/>
    
    <!-- Hair (professional bob cut) -->
    <ellipse cx="0" cy="-35" rx="75" ry="60" fill="url(#hairGrad)"/>
    <ellipse cx="-20" cy="-10" rx="25" ry="45" fill="url(#hairGrad)"/>
    <ellipse cx="20" cy="-10" rx="25" ry="45" fill="url(#hairGrad)"/>
    
    <!-- Hair highlights -->
    <ellipse cx="-15" cy="-25" rx="8" ry="15" fill="#b8860b" opacity="0.6"/>
    <ellipse cx="10" cy="-30" rx="6" ry="12" fill="#b8860b" opacity="0.5"/>
    
    <!-- Eyes -->
    <ellipse cx="-18" cy="-15" rx="8" ry="5" fill="#ffffff"/>
    <ellipse cx="18" cy="-15" rx="8" ry="5" fill="#ffffff"/>
    <ellipse cx="-18" cy="-15" rx="5" ry="4" fill="#4a90e2"/>
    <ellipse cx="18" cy="-15" rx="5" ry="4" fill="#4a90e2"/>
    <circle cx="-18" cy="-15" r="2" fill="#2c3e50"/>
    <circle cx="18" cy="-15" r="2" fill="#2c3e50"/>
    <circle cx="-17" cy="-16" r="1" fill="#ffffff"/>
    <circle cx="19" cy="-16" r="1" fill="#ffffff"/>
    
    <!-- Eyebrows -->
    <ellipse cx="-18" cy="-25" rx="10" ry="3" fill="#654321"/>
    <ellipse cx="18" cy="-25" rx="10" ry="3" fill="#654321"/>
    
    <!-- Nose -->
    <ellipse cx="0" cy="-5" rx="4" ry="8" fill="#f4a792"/>
    <ellipse cx="-1" cy="-8" rx="1" ry="2" fill="#e09080" opacity="0.7"/>
    <ellipse cx="1" cy="-8" rx="1" ry="2" fill="#e09080" opacity="0.7"/>
    
    <!-- Lips -->
    <ellipse cx="0" cy="15" rx="12" ry="6" fill="#d63384"/>
    <ellipse cx="0" cy="13" rx="10" ry="4" fill="#e91e63"/>
    <ellipse cx="0" cy="11" rx="6" ry="2" fill="#f8bbd9" opacity="0.6"/>
    
    <!-- Cheek highlights -->
    <ellipse cx="-35" cy="5" rx="8" ry="12" fill="#f8bbd9" opacity="0.4"/>
    <ellipse cx="35" cy="5" rx="8" ry="12" fill="#f8bbd9" opacity="0.4"/>
    
    <!-- Professional blazer -->
    <ellipse cx="0" cy="120" rx="80" ry="60" fill="#2c3e50"/>
    <ellipse cx="0" cy="140" rx="70" ry="50" fill="#34495e"/>
    
    <!-- Blazer lapels -->
    <path d="M -40 90 Q -20 100 -10 120 Q -15 140 -25 160" fill="#1a252f"/>
    <path d="M 40 90 Q 20 100 10 120 Q 15 140 25 160" fill="#1a252f"/>
    
    <!-- White shirt/blouse -->
    <ellipse cx="0" cy="105" rx="25" ry="35" fill="#ffffff"/>
    <ellipse cx="0" cy="110" rx="20" ry="30" fill="#f8f9fa"/>
    
    <!-- Professional earrings -->
    <circle cx="-55" cy="0" r="3" fill="#ffd700"/>
    <circle cx="55" cy="0" r="3" fill="#ffd700"/>
    
    <!-- Subtle makeup -->
    <ellipse cx="-25" cy="-20" rx="3" ry="1" fill="#e91e63" opacity="0.3"/>
    <ellipse cx="25" cy="-20" rx="3" ry="1" fill="#e91e63" opacity="0.3"/>
  </g>
  
  <!-- Professional lighting -->
  <ellipse cx="200" cy="200" rx="100" ry="200" fill="#ffffff" opacity="0.15"/>
  
  <!-- Soft shadow -->
  <ellipse cx="310" cy="550" rx="120" ry="30" fill="#000000" opacity="0.2"/>
</svg>
