<svg width="800" height="600" xmlns="http://www.w3.org/2000/svg">
  <defs>
    <radialGradient id="plateGrad" cx="50%" cy="30%" r="70%">
      <stop offset="0%" style="stop-color:#ffffff;stop-opacity:1" />
      <stop offset="80%" style="stop-color:#f8f9fa;stop-opacity:1" />
      <stop offset="100%" style="stop-color:#e9ecef;stop-opacity:1" />
    </radialGradient>
    <linearGradient id="salmonGrad" x1="0%" y1="0%" x2="100%" y2="100%">
      <stop offset="0%" style="stop-color:#ff8a80;stop-opacity:1" />
      <stop offset="50%" style="stop-color:#ff7043;stop-opacity:1" />
      <stop offset="100%" style="stop-color:#ff5722;stop-opacity:1" />
    </linearGradient>
    <linearGradient id="darkBg" x1="0%" y1="0%" x2="100%" y2="100%">
      <stop offset="0%" style="stop-color:#2c3e50;stop-opacity:1" />
      <stop offset="100%" style="stop-color:#34495e;stop-opacity:1" />
    </linearGradient>
  </defs>
  
  <!-- Dark Restaurant Background -->
  <rect width="100%" height="100%" fill="url(#darkBg)"/>
  
  <!-- Plate Shadow -->
  <ellipse cx="405" cy="355" rx="180" ry="140" fill="#000000" opacity="0.3"/>
  
  <!-- Main Plate -->
  <ellipse cx="400" cy="350" rx="180" ry="135" fill="url(#plateGrad)"/>
  <ellipse cx="400" cy="350" rx="170" ry="125" fill="none" stroke="#dee2e6" stroke-width="2"/>
  
  <!-- Salmon Fillet (Main Course) -->
  <ellipse cx="360" cy="320" rx="70" ry="35" fill="url(#salmonGrad)"/>
  <ellipse cx="365" cy="315" rx="60" ry="30" fill="#ffab91" opacity="0.8"/>
  
  <!-- Grill Marks on Salmon -->
  <path d="M 300 305 L 420 335" stroke="#d84315" stroke-width="3" opacity="0.7"/>
  <path d="M 305 320 L 425 350" stroke="#d84315" stroke-width="3" opacity="0.7"/>
  <path d="M 310 335 L 430 365" stroke="#bf360c" stroke-width="2" opacity="0.6"/>
  
  <!-- Herb Butter on Salmon -->
  <ellipse cx="380" cy="310" rx="25" ry="8" fill="#c8e6c9" opacity="0.8"/>
  <ellipse cx="375" cy="308" rx="15" ry="5" fill="#a5d6a7" opacity="0.9"/>
  
  <!-- Asparagus Spears -->
  <g transform="translate(480, 300)">
    <ellipse cx="0" cy="0" rx="4" ry="35" fill="#4caf50" transform="rotate(20)"/>
    <ellipse cx="10" cy="5" rx="4" ry="35" fill="#66bb6a" transform="rotate(25)"/>
    <ellipse cx="20" cy="10" rx="4" ry="35" fill="#4caf50" transform="rotate(30)"/>
    <ellipse cx="30" cy="15" rx="4" ry="35" fill="#66bb6a" transform="rotate(35)"/>
    <ellipse cx="40" cy="20" rx="4" ry="35" fill="#4caf50" transform="rotate(40)"/>
    <!-- Asparagus tips -->
    <ellipse cx="-5" cy="-25" rx="6" ry="6" fill="#388e3c" transform="rotate(20)"/>
    <ellipse cx="5" cy="-20" rx="6" ry="6" fill="#388e3c" transform="rotate(25)"/>
    <ellipse cx="15" cy="-15" rx="6" ry="6" fill="#388e3c" transform="rotate(30)"/>
    <ellipse cx="25" cy="-10" rx="6" ry="6" fill="#388e3c" transform="rotate(35)"/>
    <ellipse cx="35" cy="-5" rx="6" ry="6" fill="#388e3c" transform="rotate(40)"/>
  </g>
  
  <!-- Roasted Baby Potatoes -->
  <ellipse cx="300" cy="380" rx="18" ry="14" fill="#ffcc02"/>
  <ellipse cx="280" cy="390" rx="15" ry="12" fill="#ffc107"/>
  <ellipse cx="260" cy="370" rx="16" ry="13" fill="#ffb300"/>
  
  <!-- Herb garnish on potatoes -->
  <g transform="translate(300, 375)">
    <ellipse cx="0" cy="0" rx="2" ry="8" fill="#2e7d32" transform="rotate(45)"/>
    <ellipse cx="3" cy="2" rx="1" ry="6" fill="#388e3c" transform="rotate(-30)"/>
  </g>
  
  <!-- Lemon butter sauce -->
  <ellipse cx="400" cy="380" rx="50" ry="12" fill="#fff59d" opacity="0.7"/>
  <ellipse cx="380" cy="375" rx="20" ry="4" fill="#f9a825" opacity="0.8"/>
  
  <!-- Fresh herbs scattered -->
  <g transform="translate(420, 290)">
    <ellipse cx="0" cy="0" rx="1" ry="8" fill="#2e7d32" transform="rotate(45)"/>
    <ellipse cx="5" cy="3" rx="1" ry="6" fill="#388e3c" transform="rotate(-30)"/>
    <ellipse cx="10" cy="-2" rx="1" ry="7" fill="#2e7d32" transform="rotate(60)"/>
    <ellipse cx="15" cy="4" rx="1" ry="5" fill="#4caf50" transform="rotate(-45)"/>
  </g>
  
  <!-- Microgreens -->
  <g transform="translate(440, 320)">
    <path d="M 0 0 Q 5 -5 10 0 Q 15 5 20 0" stroke="#4caf50" stroke-width="1" fill="none"/>
    <path d="M 2 2 Q 7 -3 12 2 Q 17 7 22 2" stroke="#66bb6a" stroke-width="1" fill="none"/>
  </g>
  
  <!-- Lemon Wheel Garnish -->
  <g transform="translate(520, 360)">
    <circle cx="0" cy="0" r="25" fill="#fff176"/>
    <circle cx="0" cy="0" r="23" fill="none" stroke="#ffeb3b" stroke-width="2"/>
    <!-- Lemon segments -->
    <line x1="-18" y1="0" x2="18" y2="0" stroke="#ffffff" stroke-width="1.5" opacity="0.8"/>
    <line x1="0" y1="-18" x2="0" y2="18" stroke="#ffffff" stroke-width="1.5" opacity="0.8"/>
    <line x1="-13" y1="-13" x2="13" y2="13" stroke="#ffffff" stroke-width="1.5" opacity="0.8"/>
    <line x1="-13" y1="13" x2="13" y2="-13" stroke="#ffffff" stroke-width="1.5" opacity="0.8"/>
    <!-- Lemon center -->
    <circle cx="0" cy="0" r="3" fill="#f57f17" opacity="0.6"/>
  </g>
  
  <!-- Professional lighting highlights -->
  <ellipse cx="350" cy="280" rx="40" ry="15" fill="#ffffff" opacity="0.3"/>
  <ellipse cx="320" cy="300" rx="20" ry="8" fill="#ffffff" opacity="0.4"/>
  
  <!-- Elegant plate rim highlight -->
  <ellipse cx="400" cy="280" rx="160" ry="15" fill="none" stroke="#ffffff" stroke-width="1" opacity="0.6"/>
</svg>


